<svg xmlns="http://www.w3.org/2000/svg" width="1999.993" height="644.107"><path d="M615.85 304.173c-5.211-2.84-10.513-5.2-15.907-7.067-5.393-1.853-10.443-2.787-15.156-2.787-5.829 0-10.412 1.187-13.757 3.533-3.345 2.36-5.024 5.893-5.024 10.6 0 3.227 1.273 6.107 3.817 8.653 2.535 2.547 5.819 4.8 9.855 6.787a129.56 129.56 0 0 0 12.551 5.387 106.755 106.755 0 0 1 11.811 5.307 44.03 44.03 0 0 1 10.503 7.627c3.103 3.04 5.581 6.813 7.441 11.347 1.86 4.52 2.788 10.067 2.788 16.64a36.73 36.73 0 0 1-5.393 19.347c-3.593 5.947-8.86 10.747-15.805 14.4-6.944 3.667-15.501 5.493-25.664 5.493-5.205 0-10.508-.533-15.901-1.587s-10.691-2.667-15.897-4.827c-5.211-2.173-10.229-4.933-15.064-8.28l11.901-21.013a63.898 63.898 0 0 0 10.508 6.227c3.777 1.8 7.588 3.2 11.436 4.187 3.843.987 7.375 1.493 10.599 1.493s6.479-.467 9.764-1.4 6.011-2.507 8.181-4.747c2.169-2.227 3.255-5.32 3.255-9.293 0-2.72-.899-5.213-2.697-7.44s-4.212-4.28-7.249-6.133c-3.041-1.867-6.356-3.467-9.951-4.84a189.16 189.16 0 0 1-13.017-5.573 66.87 66.87 0 0 1-12.556-7.72c-3.903-3.04-7.065-6.813-9.479-11.347-2.423-4.52-3.629-10.067-3.629-16.64 0-7.933 1.764-14.813 5.303-20.64 3.533-5.84 8.521-10.453 14.969-13.867 6.443-3.4 13.883-5.293 22.319-5.667 11.029 0 19.992 1.307 26.871 3.907s13.043 5.707 18.501 9.293l-10.224 20.64m35.328-33.094h93.357v26.027h-66.389v29.2h58.76v26.04h-58.76v29.573h68.989v26.027h-95.957V271.08m195.258 84.053 33.851 52.813h-31.427l-34.592-52.067zM821.155 338.4c4.085 0 7.497-.68 10.224-2.053 2.728-1.36 4.861-3.093 6.417-5.2 1.547-2.107 2.661-4.307 3.347-6.6s1.023-4.44 1.023-6.413c0-1.493-.217-3.387-.653-5.68s-1.328-4.613-2.696-6.973c-1.364-2.347-3.437-4.333-6.225-5.947s-6.544-2.427-11.253-2.427h-19.343V338.4zm-4.653-67.32c8.557 0 16.18 1.08 22.872 3.253 6.701 2.173 12.307 5.267 16.833 9.293 4.527 4.04 7.964 8.867 10.321 14.507s3.533 12 3.533 19.067c0 5.573-.837 11.16-2.509 16.733-1.679 5.573-4.405 10.667-8.187 15.253s-8.769 8.28-14.969 11.067-13.884 4.187-23.059 4.187h-19.343v43.507h-26.963V271.081H816.5m99.308 0 39.985 98.56-15.623-3.16 36.264-95.4h31.988l-62.488 143.2-62.481-143.2h32.355m116.228 0h26.973v136.866h-26.973V271.081m164.96 125.52c-1.493 1.253-4.253 2.92-8.28 5.027s-8.96 3.973-14.787 5.587c-5.827 1.6-12.267 2.347-19.333 2.227-10.787-.253-20.44-2.2-28.92-5.853-8.507-3.667-15.693-8.653-21.573-14.973-5.893-6.333-10.387-13.573-13.493-21.76-3.093-8.187-4.64-16.92-4.64-26.227 0-10.413 1.573-19.96 4.747-28.64 3.147-8.68 7.68-16.173 13.573-22.493 5.88-6.32 12.92-11.227 21.107-14.693s17.227-5.213 27.147-5.213c9.173 0 17.293 1.24 24.36 3.72s12.84 5.147 17.307 8l-10.613 25.48c-3.093-2.36-7.213-4.813-12.36-7.347-5.147-2.547-11.067-3.813-17.76-3.813a35.71 35.71 0 0 0-14.973 3.253c-4.773 2.173-8.987 5.24-12.64 9.2-3.667 3.973-6.547 8.587-8.653 13.853-2.107 5.28-3.16 11.013-3.16 17.213 0 6.573.96 12.587 2.88 18.04s4.68 10.133 8.28 14.04c3.6 3.893 7.907 6.907 12.92 9.013s10.693 3.16 17.013 3.16c7.32 0 13.573-1.173 18.787-3.533 5.213-2.347 9.173-4.827 11.907-7.44l11.16 24.173m26.956-125.521h93.36v26.027h-66.4v29.2h58.773v26.04h-58.773v29.573h69v26.027h-95.96V271.082" fill="#4f9fdd"/><path d="M1392.062 382.839c3.973 0 7.573-.52 10.787-1.573 3.227-1.053 5.773-2.733 7.627-5.027 1.867-2.293 2.787-5.173 2.787-8.64 0-3.973-1.107-6.973-3.347-9.027-2.227-2.04-5.107-3.467-8.64-4.28-3.533-.8-7.227-1.2-11.067-1.2h-15.44v29.747zm-.933-55.787c5.333 0 9.267-1.613 11.813-4.84 2.547-3.213 3.813-6.88 3.813-10.973 0-4.707-1.573-8.24-4.747-10.6-3.147-2.347-7.4-3.533-12.733-3.533h-14.507v29.947zm-3.147-55.973c14.253 0 25.6 2.88 34.027 8.64 8.427 5.773 12.653 14.36 12.653 25.76 0 8.44-2.08 15.467-6.24 21.107s-9.787 9.853-16.92 12.653c-7.133 2.787-15.28 4.173-24.453 4.173l-4.28-14.493c11.28 0 21.293 1.547 30.027 4.64 8.747 3.107 15.653 7.533 20.747 13.293 5.08 5.773 7.627 12.68 7.627 20.747 0 7.44-1.347 13.733-4 18.867-2.667 5.147-6.267 9.307-10.8 12.467-4.52 3.16-9.64 5.453-15.333 6.88-5.707 1.427-11.587 2.133-17.667 2.133h-45.56V271.08h40.173m104.318 86.293c0 4.333 1.307 8.48 3.907 12.453s6.04 7.187 10.32 9.667 8.96 3.72 14.04 3.72c5.587 0 10.533-1.24 14.88-3.72s7.773-5.693 10.32-9.667 3.813-8.12 3.813-12.453V271.08h26.587v86.84c0 10.04-2.48 18.947-7.44 26.693-4.947 7.747-11.64 13.827-20.08 18.227-8.427 4.4-17.787 6.6-28.08 6.6-10.16 0-19.427-2.2-27.8-6.6s-15.04-10.48-19.987-18.227c-4.96-7.747-7.453-16.653-7.453-26.693v-86.84h26.973v86.293m143.387 24.546h15.987c6.827 0 13.013-.907 18.6-2.707 5.573-1.787 10.387-4.427 14.413-7.893 4.027-3.48 7.12-7.84 9.307-13.12 2.16-5.267 3.253-11.307 3.253-18.133 0-8.92-1.467-16.2-4.373-21.84-2.92-5.653-6.507-10.013-10.787-13.12-4.28-3.093-8.653-5.24-13.12-6.413s-8.24-1.76-11.333-1.76h-21.947zm-26.973 26.027V271.08h40.92c13.76 0 25.48 2.04 35.147 6.133s17.453 9.547 23.333 16.373c5.893 6.813 10.2 14.44 12.933 22.867 2.72 8.44 4.08 16.92 4.08 25.48 0 10.173-1.827 19.307-5.48 27.427-3.667 8.12-8.653 15.067-14.973 20.827-6.32 5.773-13.64 10.173-21.933 13.2-8.32 3.053-17.12 4.56-26.413 4.56h-47.613m170.345-26.028h15.987c6.827 0 13.027-.907 18.613-2.707 5.573-1.787 10.373-4.427 14.4-7.893 4.027-3.48 7.133-7.84 9.307-13.12 2.16-5.267 3.253-11.307 3.253-18.133 0-8.92-1.467-16.2-4.373-21.84-2.907-5.653-6.507-10.013-10.787-13.12-4.28-3.093-8.64-5.24-13.107-6.413s-8.253-1.76-11.347-1.76h-21.947zm-26.96 26.027V271.08h40.907c13.76 0 25.48 2.04 35.147 6.133s17.453 9.547 23.347 16.373c5.88 6.813 10.187 14.44 12.92 22.867 2.72 8.44 4.093 16.92 4.093 25.48 0 10.173-1.827 19.307-5.48 27.427-3.667 8.12-8.653 15.067-14.973 20.827-6.32 5.773-13.64 10.173-21.947 13.2-8.307 3.053-17.107 4.56-26.413 4.56h-47.6m169.598-42.588-50.4-94.28h33.293l35.333 71.04-8 .56 34.787-71.6h33.28l-51.333 94.28v42.587h-26.96v-42.587M608.545 33.133c-.525-8.733-2.505-17.507-9.449-22.293-5.432-3.747-12.48-3.893-19.076-3.907l-88.698-.24c-8.712-.027-18.379.32-24.64 6.373-5.521 5.347-6.757 13.627-7.437 21.28-3.955 44.52.448 90.4-12.649 133.133-16.355 53.373-61.024 97.16-114.714 112.453-53.691 15.28-114.722 1.587-156.736-35.173s-63.691-95.44-55.673-150.68c.769-5.293 1.531-11.467-2.208-15.28-2.743-2.813-7.013-3.32-10.928-3.627A507.962 507.962 0 0 0 53.8 73.879c-12.092.333-35.941-2.547-46.096 5.267-9.791 7.533-6.768 26.707-7.104 37.4a1219.36 1219.36 0 0 0-.48 55.36c.072 5.133.219 10.453 2.447 15.08 6.66 13.827 25.903 13.48 41.243 14.08 44.305 1.773 85.316 30.08 107.564 68.426 22.247 38.36 26.92 85.36 18.304 128.866-5.76 29.067-17.48 57.427-37.049 79.68s-47.492 37.907-77.093 39.28c-5.919.28-12.583.28-16.717 4.52-3.804 3.907-4.003 9.96-3.968 15.413l.285 45.947c.035 5.6.44 12 4.84 15.467 3.169 2.493 7.517 2.693 11.551 2.773l43.243.907c4.437.093 9.033.16 13.108-1.6 12.599-5.44 12.464-22.84 12.819-36.56 1.263-48.84 36.495-93.013 81.274-112.56 44.78-19.533 97.05-16.827 143.148-.64 36.107 12.667 69.702 33.6 94.637 62.627s40.784 66.4 41.209 104.653c.097 8.813.361 19.467 8.015 23.827 3.528 2 7.8 2.027 11.86 2.013l51.855-.28c4.376-.027 9.145-.187 12.492-3 4.163-3.507 4.527-9.68 4.565-15.12l.371-50.933c.029-4.027.013-8.253-1.883-11.813-4.38-8.227-15.669-8.693-24.961-9.347-31.255-2.213-60.389-18.92-81.598-41.987s-35.068-52.08-44.308-82.013c-17.555-56.88-18.749-120.48 6.337-174.466 25.088-53.973 79.173-95.96 138.677-97.52 16.191-.427 36.364-.093 43.652-14.56 2.717-5.4 2.769-11.693 2.764-17.733l-.077-85.493c-.001-2.187-.04-4.453-.176-6.707" fill="#182642"/><path d="M402.643 117.387c-.115 64.067-52.311 116.093-116.306 115.946-65.052-.147-116.216-51.707-116.149-117.026C170.253 52.374 222.283.267 286.317.001c63.888-.267 116.442 52.773 116.326 117.386" fill="#4f9fdd"/></svg>