<svg viewBox="0 0 170 75" width="100%" height="100%" xmlns="http://www.w3.org/2000/svg">
  <g fill="none" fill-rule="evenodd">
    <path class="corporateGray" d="M85.5802934 39.36036c0 2.82141-2.0288031 5.05908-6.1176216 5.05908-1.2172818 0-3.8391197-.16215-5.5870116-.6486-.3745482-.09729-.5930347-.35673-.5930347-.74589v-1.9458c0-.25944.2184865-.51888.53061-.51888h.1248494c1.4981931.19458 4.3073051.35673 5.2436757.35673 1.935166 0 2.2160772-.68103 2.2160772-1.55664 0-.61617-.3745482-1.00533-1.3733436-1.65393l-4.2760927-2.72412c-1.5294054-.9729-2.6218378-2.5944-2.6218378-4.47534 0-3.243 1.9663784-4.8645 5.9303475-4.8645 2.5282008 0 3.9639691.29187 5.5557992.6486.3745483.09729.5618224.35673.5618224.74589v1.88094c0 .38916-.1872741.61617-.4993977.61617h-.1248494c-.8739459-.12972-3.3709343-.38916-5.1500386-.38916-1.498193 0-2.1536525.35673-2.1536525 1.36206 0 .51888.4681853.84318 1.2484942 1.32963l4.0888185 2.5944c2.6218379 1.65393 2.9963861 3.27543 2.9963861 4.92936zm26.2095996 4.11861c0 .35673-.280911.68103-.624247.68103h-2.871536c-.343336 0-.624248-.3243-.624248-.68103v-11.0262c0-2.49711-.499397-3.14571-2.247289-3.14571-.593035 0-1.779104.19458-2.902749.81075.093637.71346.124849 1.52421.124849 2.33496v11.0262c0 .35673-.280911.68103-.624247.68103h-2.8715365c-.3433359 0-.6242471-.3243-.6242471-.68103v-11.0262c0-2.49711-.4057606-3.14571-2.1536525-3.14571-.6554595 0-1.5918302.35673-2.8715367 1.07019v13.10172c0 .35673-.2809112.68103-.6242471.68103h-2.8715367c-.3433359 0-.6242471-.3243-.6242471-.68103V26.51808c0-.35673.2809112-.6486.6242471-.6486h2.7154749c.3433359 0 .6242471.29187.6242471.6486v.68103c1.3109189-.87561 2.6218378-1.55664 4.4633668-1.55664 1.7791043 0 2.9339618.55131 3.6518458 1.45935 1.59183-.90804 2.996386-1.45935 5.150038-1.45935 4.244881 0 5.181251 3.01599 5.181251 6.8103v11.0262zm17.470141.03243c0 .35673-.280911.6486-.624247.6486h-2.653051c-.343335 0-.624247-.29187-.624247-.6486v-.51888c-1.435768.90804-2.902749 1.42692-4.400942 1.42692-2.590625 0-5.399737-1.03776-5.399737-5.41581v-.12972c0-3.69702 2.184865-5.61039 7.615815-5.61039h1.966378V31.8366c0-2.10795-.905158-2.62683-2.746687-2.62683-1.997591 0-4.057607.12972-5.087614.25944h-.156062c-.312124 0-.561822-.09729-.561822-.55131v-2.07552c0-.35673.187274-.58374.593034-.68103 1.248495-.25944 3.058811-.51888 5.212464-.51888 4.432154 0 6.866718 2.04309 6.866718 6.19413v11.6748zm-4.120031-3.40515v-3.98889h-1.966378c-2.840325 0-3.464572.94047-3.464572 2.75655v.12972c0 1.58907.686672 2.01066 2.24729 2.01066 1.123644 0 2.278502-.38916 3.18366-.90804zm17.59499-11.48022c0 .35673-.280911.6486-.624247.6486-1.685468 0-2.996386.45402-4.307305 1.16748v13.03686c0 .35673-.280912.68103-.624247.68103h-2.871537c-.343336 0-.624247-.3243-.624247-.68103V26.51808c0-.35673.280911-.6486.624247-.6486h2.715475c.343336 0 .624247.29187.624247.6486v.68103c1.529405-1.23234 3.214872-1.55664 4.463367-1.55664.343336 0 .624247.29187.624247.6486v2.33496zm12.850712 14.98266c0 .3243-.187274.51888-.593035.58374-.749097.12972-1.435768.22701-2.12244.22701-3.526996 0-4.962765-.81075-4.962765-5.15637V29.08005l-2.933961-.45402c-.343336-.06486-.624247-.29187-.624247-.6486v-1.45935c0-.35673.280911-.6486.624247-.6486h2.933961v-2.65926c0-.35673.280911-.58374.624247-.6486l2.902749-.51888h.12485c.280911 0 .499397.16215.499397.48645v3.34029h2.809112c.343336 0 .624248.29187.624248.6486v1.91337c0 .35673-.280912.6486-.624248.6486h-2.809112v10.18302c0 1.6215.093638 1.81608 1.217282 1.81608h1.654255c.405761 0 .65546.16215.65546.48645v2.04309zM85.5802934 63.51036c0 2.82141-2.0288031 5.05908-6.1176216 5.05908-1.2172818 0-3.8391197-.16215-5.5870116-.6486-.3745482-.09729-.5930347-.35673-.5930347-.74589v-1.9458c0-.25944.2184865-.51888.53061-.51888h.1248494c1.4981931.19458 4.3073051.35673 5.2436757.35673 1.935166 0 2.2160772-.68103 2.2160772-1.55664 0-.61617-.3745482-1.00533-1.3733436-1.65393l-4.2760927-2.72412c-1.5294054-.9729-2.6218378-2.5944-2.6218378-4.47534 0-3.243 1.9663784-4.8645 5.9303475-4.8645 2.5282008 0 3.9639691.29187 5.5557992.6486.3745483.09729.5618224.35673.5618224.74589v1.88094c0 .38916-.1872741.61617-.4993977.61617h-.1248494c-.8739459-.12972-3.3709343-.38916-5.1500386-.38916-1.498193 0-2.1536525.35673-2.1536525 1.36206 0 .51888.4681853.84318 1.2484942 1.32963l4.0888185 2.5944c2.6218379 1.65393 2.9963861 3.27543 2.9963861 4.92936zm17.7510516 10.57218c0 .35673-.280911.6486-.624247.6486h-2.8715367c-.3433359 0-.6242471-.29187-.6242471-.6486v-5.74011c-1.1548572.16215-2.2472896.22701-2.9963861.22701-5.0251892 0-7.4597529-3.08085-7.4597529-8.13993V57.9324c0-5.05908 2.4345637-8.13993 7.4597529-8.13993 1.9975907 0 4.3385169.3243 6.2736829.84318.717885.19458.842734.38916.842734.87561v22.57128zm-4.1200308-9.24255V53.52192c-.5930348-.12972-1.8727413-.22701-2.9963861-.22701-2.6842626 0-3.339722 1.97823-3.339722 4.63749v2.49711c0 2.65926.6554594 4.63749 3.339722 4.63749.7490965 0 2.1224401-.09729 2.9963861-.22701zm22.9635148 2.82141c0 .35673-.280911.6486-.624247.6486h-2.871537c-.343336 0-.624247-.29187-.624247-.6486v-.74589c-1.623042 1.10262-2.902749 1.6215-4.90034 1.6215-1.560617 0-2.933961-.42159-3.839119-1.36206-1.154857-1.19991-1.560618-3.21057-1.560618-5.90226V50.70051c0-.35673.280911-.68103.624247-.68103h2.871537c.343336 0 .624247.3243.624247.68103v10.57218c0 1.6215.124849 2.56197.717884 3.11328.436973.38916.967583.58374 1.935166.58374 1.154857 0 2.65305-.81075 3.526996-1.2972v-12.972c0-.35673.280911-.68103.624247-.68103h2.871537c.343336 0 .624247.3243.624247.68103V67.6614zm17.470141 0c0 .35673-.280912.6486-.624248.6486h-2.65305c-.343336 0-.624247-.29187-.624247-.6486v-.51888c-1.435768.90804-2.902749 1.42692-4.400942 1.42692-2.590625 0-5.399737-1.03776-5.399737-5.41581v-.12972c0-3.69702 2.184865-5.61039 7.615814-5.61039h1.966379V55.9866c0-2.10795-.905159-2.62683-2.746688-2.62683-1.99759 0-4.057606.12972-5.087613.25944h-.156062c-.312124 0-.561823-.09729-.561823-.55131v-2.07552c0-.35673.187275-.58374.593035-.68103 1.248494-.25944 3.058811-.51888 5.212463-.51888 4.432155 0 6.866719 2.04309 6.866719 6.19413v11.6748zm-4.120031-3.40515v-3.98889h-1.966379c-2.840324 0-3.464571.94047-3.464571 2.75655v.12972c0 1.58907.686672 2.01066 2.247289 2.01066 1.123645 0 2.278502-.38916 3.183661-.90804zm17.59499-11.48022c0 .35673-.280912.6486-.624248.6486-1.685467 0-2.996386.45402-4.307305 1.16748v13.03686c0 .35673-.280911.68103-.624247.68103h-2.871536c-.343336 0-.624247-.3243-.624247-.68103V50.66808c0-.35673.280911-.6486.624247-.6486h2.715475c.343335 0 .624247.29187.624247.6486v.68103c1.529405-1.23234 3.214872-1.55664 4.463366-1.55664.343336 0 .624248.29187.624248.6486v2.33496zm16.814681 7.06974c0 .51888-.187275.81075-.624248.81075h-10.175227v.09729c0 1.88094.749096 4.11861 3.745482 4.11861 2.278502 0 4.432155-.19458 5.743074-.3243h.093637c.312123 0 .561822.16215.561822.48645v2.14038c0 .51888-.093637.74589-.655459.84318-2.028803.38916-3.246085.55131-6.055197.55131-3.121236 0-7.55339-1.75122-7.55339-8.13993v-2.39982c0-5.05908 2.715475-8.23722 7.490965-8.23722 4.806703 0 7.428541 3.40515 7.428541 8.23722v1.81608zm-4.151244-2.23767v-.12972c0-2.52954-1.342131-3.98889-3.277297-3.98889s-3.339722 1.42692-3.339722 3.98889v.12972h6.617019zM66.3913641 58.5532148c0 5.8444698-4.5598058 10.5824698-10.1851312 10.5824698-5.6250283 0-10.1849827-4.738-10.1849827-10.5824698s4.5599544-10.5823155 10.1849827-10.5823155c5.6253254 0 10.1851312 4.7378457 10.1851312 10.5823155M66.3913641 34.6449c0 5.8446242-4.5598058 10.5824698-10.1851312 10.5824698-5.6250283 0-10.1849827-4.7378456-10.1849827-10.5824698 0-5.8444698 4.5599544-10.5823154 10.1849827-10.5823154 5.6253254 0 10.1851312 4.7378456 10.1851312 10.5823154M43.3806722 58.5532148c0 5.8444698-4.5598058 10.5824698-10.1851313 10.5824698-5.6250283 0-10.1848341-4.738-10.1848341-10.5824698s4.5598058-10.5823155 10.1848341-10.5823155c5.6253255 0 10.1851313 4.7378457 10.1851313 10.5823155" fill="#B2B5B7"></path>
    <path class="corporateGreen" d="M43.3806722 10.7366007c0 5.8444698-4.5598058 10.5824698-10.1851313 10.5824698-5.6250283 0-10.1848341-4.738-10.1848341-10.5824698 0-5.84446983 4.5598058-10.58231547 10.1848341-10.58231547 5.6253255 0 10.1851313 4.73784564 10.1851313 10.58231547" fill="#B7C533"></path>
    <path class="corporateGray" d="M20.3700991 34.6449c0 5.8446242-4.5599544 10.5824698-10.1851313 10.5824698-5.62502826 0-10.18498266-4.7378456-10.18498266-10.5824698 0-5.8444698 4.5599544-10.5823154 10.18498266-10.5823154 5.6251769 0 10.1851313 4.7378456 10.1851313 10.5823154M20.3700991 10.7366007c0 5.8444698-4.5599544 10.5824698-10.1851313 10.5824698-5.62502826 0-10.18498266-4.738-10.18498266-10.5824698 0-5.84446983 4.5599544-10.58231547 10.18498266-10.58231547 5.6251769 0 10.1851313 4.73784564 10.1851313 10.58231547" fill="#B2B5B7"></path>
    <path class="corporateBlue" d="M46.0213542 10.7765497c0-.0132752-.0001486-.0265504-.0001486-.0399799C46.0212056 4.8921 50.58116.15440872 56.2063369.15440872c5.6251768 0 10.1849827 4.73769128 10.1849827 10.58216108 0 5.8446242-4.5598059 10.5824698-10.1849827 10.5824698-.0328332 0-.0656665-.0001544-.0982025-.0004631l-.0166395.0171342c-6.9927323.0632886-12.649851 5.9411007-12.7107633 13.2067853-.0001486.0344228 0 .0683825 0 .1023423 0 5.8446241-4.5599544 10.5826241-10.1851312 10.5826241-.1699602 0-.3387319-.0044765-.5066121-.0129664-6.811184.2746107-12.2591209 6.0676778-12.3189932 13.1970604l-.0007429.0009262c.0005943.0467718.0008914.0936979.0008914.1407785 0 5.8444698-4.5601029 10.5823154-10.1851312 10.5823154-5.62502829 0-10.18513125-4.7378456-10.18513125-10.5823154 0-5.8311947 4.53915507-10.5607047 10.14650395-10.5823155l.0224335-.023h.0155995c7.0760782 0 12.8135714-5.9539127 12.8256053-13.302953.0005943-5.8446241 4.5605487-10.5823154 10.185577-10.5823154.1418811 0 .2831679.0029329.4235633.008953 6.8798217-.2323154 12.3897109-6.0940738 12.4014477-13.295698l.0007428.0006175z" fill="#556B93"></path>
  </g>
</svg>
